<svg width="992" height="307" viewBox="0 0 992 307" fill="none" xmlns="http://www.w3.org/2000/svg">
<path fill-rule="evenodd" clip-rule="evenodd" d="M655.64 76.408C653.44 78.41 651.498 80.6781 649.858 83.16C647.72 86.517 646.096 90.1747 645.04 94.012C643.722 98.4995 642.835 103.102 642.39 107.758C641.802 113.612 641.802 119.509 642.39 125.363C642.852 130.51 643.821 135.599 645.281 140.556C649.209 153.301 655.502 161.799 660.458 166.356C667.01 172.385 673.097 175.277 678.284 176.725C685.052 178.615 693.763 178.97 704.543 175.279C712.888 172.421 718.506 168.342 722.369 163.944C727.328 158.299 728.884 152.658 728.869 149.957C728.849 148.324 728.606 146.701 728.147 145.134C727.435 142.625 726.294 140.259 724.774 138.14C721.959 134.203 718.603 132.408 715.62 130.182C710.874 126.641 706.537 121.028 703.093 111.854C701.53 107.847 700.635 103.611 700.443 99.314C700.274 94.5565 701.01 89.8101 702.611 85.327L704.779 76.886C705.679 75.853 701.773 102.707 714.415 112.336C715.81 113.351 717.509 113.862 719.233 113.783C720.551 113.838 721.862 113.556 723.042 112.966C724.222 112.375 725.232 111.495 725.979 110.407C726.969 108.982 727.551 107.315 727.665 105.584C728.274 99.25 724.259 90.633 723.811 89.667C722.458 86.757 721.193 83.826 719.956 80.745C717.853 76.9659 716.079 73.0122 714.656 68.928C713.244 64.9306 712.196 60.8139 711.525 56.628C710.938 53.1231 710.696 49.5691 710.802 46.017C710.945 42.7597 711.429 39.5263 712.247 36.37C713.523 31.6928 715.471 27.2253 718.029 23.107C720.137 19.8141 722.471 16.6715 725.015 13.702C727.132 11.168 730.097 7.96802 732.965 5.02002C734.321 3.62602 735.665 2.27904 737.06 0.920044L733.928 7.43204C731.83 10.8781 730.056 14.5109 728.628 18.284C727.508 21.1825 726.622 24.166 725.978 27.206C725.009 31.9643 724.685 36.8313 725.014 41.676C725.246 44.8443 725.729 47.9892 726.459 51.081C727.319 54.6967 728.446 58.2434 729.832 61.692C731.534 65.8944 733.464 70.0005 735.614 73.992C737.289 77.156 739.029 80.241 740.914 83.397C743.077 87.019 745.267 90.38 747.414 94.008C749.28 97.1262 750.969 100.347 752.473 103.655C756.843 113.779 759.057 124.702 758.973 135.729C758.943 142.248 758.052 148.735 756.323 155.021C754.511 161.576 751.751 167.832 748.132 173.59C739.231 187.821 725.452 198.325 709.371 203.138C693.29 207.951 676.007 206.744 660.75 199.743C645.494 192.741 633.309 180.425 626.473 165.094C619.636 149.764 618.614 132.468 623.6 116.44C627.106 104.467 633.86 93.6992 643.113 85.331C645.528 83.2042 648.106 81.269 650.822 79.543L655.64 76.408Z" fill="#D34C31"/>
<path d="M192.996 197.79C184.459 197.79 176.852 196.309 170.174 193.348C163.495 190.328 158.211 185.886 154.32 180.02C150.488 174.097 148.571 166.722 148.571 157.895C148.571 150.462 149.936 144.22 152.665 139.167C155.395 134.115 159.111 130.05 163.815 126.973C168.519 123.895 173.861 121.572 179.842 120.004C185.882 118.436 192.212 117.333 198.832 116.694C206.613 115.881 212.885 115.126 217.647 114.429C222.409 113.674 225.864 112.571 228.012 111.119C230.161 109.667 231.235 107.519 231.235 104.673V104.151C231.235 98.6339 229.493 94.3657 226.009 91.346C222.583 88.3263 217.705 86.8165 211.375 86.8165C204.697 86.8165 199.383 88.2973 195.435 91.2589C191.486 94.1625 188.872 97.8209 187.595 102.234L153.275 99.4469C155.017 91.317 158.443 84.2904 163.554 78.3671C168.664 72.3858 175.255 67.7982 183.327 64.6043C191.457 61.3523 200.864 59.7263 211.549 59.7263C218.982 59.7263 226.096 60.5974 232.89 62.3395C239.743 64.0817 245.811 66.782 251.096 70.4404C256.438 74.0989 260.648 78.8027 263.726 84.5517C266.804 90.2427 268.343 97.066 268.343 105.022V195.264H233.152V176.71H232.106C229.958 180.891 227.083 184.579 223.483 187.773C219.882 190.909 215.556 193.377 210.504 195.177C205.452 196.919 199.616 197.79 192.996 197.79ZM203.623 172.181C209.081 172.181 213.901 171.107 218.082 168.958C222.263 166.751 225.544 163.79 227.925 160.073C230.306 156.356 231.497 152.146 231.497 147.443V133.244C230.335 133.999 228.738 134.696 226.706 135.335C224.731 135.916 222.496 136.467 219.999 136.99C217.502 137.454 215.004 137.89 212.507 138.296C210.01 138.645 207.746 138.964 205.713 139.255C201.358 139.893 197.554 140.91 194.302 142.303C191.05 143.697 188.524 145.584 186.724 147.965C184.924 150.288 184.024 153.192 184.024 156.676C184.024 161.728 185.853 165.59 189.511 168.261C193.228 170.874 197.932 172.181 203.623 172.181Z" fill="white"/>
<path d="M334.239 117.913V195.264H297.131V61.4685H332.497V85.0743H334.065C337.026 77.2928 341.991 71.1373 348.96 66.6077C355.928 62.0201 364.378 59.7263 374.308 59.7263C383.599 59.7263 391.7 61.7588 398.61 65.8238C405.521 69.8888 410.893 75.6959 414.725 83.2451C418.558 90.7363 420.474 99.6792 420.474 110.074V195.264H383.367V116.694C383.425 108.506 381.334 102.118 377.095 97.5306C372.856 92.8849 367.02 90.562 359.587 90.562C354.593 90.562 350.179 91.6364 346.347 93.785C342.572 95.9336 339.61 99.0695 337.462 103.192C335.371 107.257 334.297 112.164 334.239 117.913Z" fill="white"/>
<path d="M499.022 197.442C488.86 197.442 479.656 194.829 471.41 189.602C463.222 184.318 456.718 176.565 451.898 166.345C447.136 156.066 444.755 143.465 444.755 128.54C444.755 113.21 447.223 100.463 452.159 90.3007C457.095 80.0802 463.657 72.4439 471.845 67.3917C480.091 62.2815 489.121 59.7263 498.935 59.7263C506.427 59.7263 512.669 61.0039 517.663 63.559C522.715 66.0561 526.78 69.1919 529.858 72.9665C532.994 76.6831 535.375 80.3415 537.001 83.9419H538.133V16.8699H575.154V195.264H538.569V173.836H537.001C535.259 177.552 532.791 181.24 529.597 184.898C526.461 188.499 522.367 191.489 517.315 193.87C512.321 196.251 506.223 197.442 499.022 197.442ZM510.782 167.913C516.763 167.913 521.815 166.287 525.938 163.035C530.12 159.725 533.313 155.108 535.52 149.185C537.785 143.261 538.917 136.322 538.917 128.366C538.917 120.411 537.814 113.5 535.607 107.635C533.401 101.77 530.207 97.2402 526.026 94.0463C521.844 90.8524 516.763 89.2554 510.782 89.2554C504.684 89.2554 499.545 90.9105 495.364 94.2205C491.183 97.5306 488.018 102.118 485.869 107.983C483.721 113.849 482.646 120.643 482.646 128.366C482.646 136.148 483.721 143.029 485.869 149.011C488.076 154.934 491.241 159.579 495.364 162.948C499.545 166.258 504.684 167.913 510.782 167.913Z" fill="white"/>
<path d="M781.855 193.175V59.3539H817.837V82.7029H819.231C821.67 74.3972 825.765 68.1243 831.515 63.8843C837.265 59.5863 843.886 57.4372 851.379 57.4372C853.238 57.4372 855.241 57.5534 857.39 57.7857C859.539 58.018 861.427 58.3375 863.053 58.7441V91.6765C861.311 91.1538 858.901 90.6891 855.822 90.2826C852.744 89.876 849.927 89.6727 847.371 89.6727C841.912 89.6727 837.033 90.8634 832.735 93.2448C828.495 95.568 825.126 98.8206 822.628 103.003C820.189 107.184 818.969 112.005 818.969 117.465V193.175H781.855Z" fill="white"/>
<path d="M916.569 195.701C908.031 195.701 900.422 194.22 893.742 191.258C887.063 188.238 881.778 183.795 877.886 177.928C874.053 172.004 872.136 164.628 872.136 155.799C872.136 148.365 873.501 142.121 876.231 137.068C878.961 132.014 882.678 127.949 887.383 124.87C892.087 121.792 897.431 119.469 903.413 117.901C909.454 116.332 915.785 115.229 922.406 114.59C930.189 113.777 936.462 113.022 941.225 112.325C945.987 111.57 949.443 110.466 951.592 109.014C953.741 107.562 954.816 105.413 954.816 102.567V102.044C954.816 96.5264 953.073 92.2574 949.588 89.2371C946.161 86.2168 941.283 84.7067 934.952 84.7067C928.272 84.7067 922.958 86.1878 919.008 89.15C915.059 92.0541 912.445 95.7132 911.167 100.127L876.841 97.3395C878.583 89.2081 882.01 82.1801 887.121 76.2558C892.232 70.2733 898.825 65.6849 906.898 62.4903C915.03 59.2378 924.439 57.6115 935.126 57.6115C942.56 57.6115 949.675 58.4827 956.471 60.2252C963.325 61.9676 969.394 64.6684 974.68 68.3276C980.023 71.9868 984.234 76.6914 987.313 82.4415C990.391 88.1335 991.93 94.9582 991.93 102.915V193.175H956.732V174.618H955.687C953.538 178.799 950.663 182.488 947.062 185.682C943.461 188.819 939.134 191.287 934.08 193.088C929.027 194.83 923.19 195.701 916.569 195.701ZM927.198 170.087C932.657 170.087 937.478 169.013 941.66 166.864C945.842 164.657 949.124 161.694 951.505 157.977C953.886 154.26 955.077 150.049 955.077 145.344V131.143C953.915 131.898 952.318 132.595 950.285 133.234C948.311 133.815 946.074 134.367 943.577 134.89C941.079 135.354 938.582 135.79 936.084 136.196C933.587 136.545 931.322 136.864 929.289 137.155C924.933 137.794 921.128 138.81 917.876 140.204C914.623 141.598 912.096 143.486 910.296 145.867C908.495 148.19 907.595 151.094 907.595 154.579C907.595 159.632 909.425 163.495 913.084 166.167C916.801 168.78 921.506 170.087 927.198 170.087Z" fill="white"/>
<path d="M784.909 241.798H773.834C773.179 238.613 772.033 235.814 770.396 233.403C768.788 230.991 766.823 228.967 764.501 227.33C762.209 225.662 759.664 224.412 756.865 223.579C754.067 222.745 751.149 222.328 748.113 222.328C742.575 222.328 737.559 223.727 733.064 226.526C728.598 229.324 725.041 233.447 722.391 238.895C719.771 244.343 718.461 251.027 718.461 258.946C718.461 266.865 719.771 273.548 722.391 278.996C725.041 284.444 728.598 288.567 733.064 291.366C737.559 294.164 742.575 295.563 748.113 295.563C751.149 295.563 754.067 295.146 756.865 294.313C759.664 293.479 762.209 292.244 764.501 290.607C766.823 288.939 768.788 286.9 770.396 284.489C772.033 282.048 773.179 279.249 773.834 276.093H784.909C784.075 280.767 782.557 284.95 780.354 288.642C778.151 292.333 775.412 295.474 772.137 298.064C768.863 300.624 765.186 302.574 761.107 303.914C757.059 305.254 752.727 305.923 748.113 305.923C740.313 305.923 733.376 304.018 727.303 300.207C721.23 296.397 716.452 290.979 712.969 283.953C709.486 276.927 707.744 268.591 707.744 258.946C707.744 249.3 709.486 240.964 712.969 233.939C716.452 226.913 721.23 221.495 727.303 217.684C733.376 213.873 740.313 211.968 748.113 211.968C752.727 211.968 757.059 212.638 761.107 213.978C765.186 215.317 768.863 217.282 772.137 219.872C775.412 222.432 778.151 225.558 780.354 229.25C782.557 232.912 784.075 237.094 784.909 241.798Z" fill="white"/>
<path d="M811.914 263.411V304.673H801.376V213.218H811.914V246.799H812.807C814.415 243.257 816.826 240.443 820.042 238.36C823.287 236.246 827.603 235.189 832.992 235.189C837.666 235.189 841.759 236.127 845.272 238.002C848.785 239.848 851.509 242.691 853.444 246.532C855.409 250.342 856.391 255.195 856.391 261.089V304.673H845.853V261.804C845.853 256.356 844.438 252.143 841.61 249.166C838.812 246.159 834.927 244.656 829.955 244.656C826.502 244.656 823.406 245.385 820.667 246.844C817.958 248.303 815.814 250.431 814.236 253.23C812.688 256.028 811.914 259.422 811.914 263.411Z" fill="white"/>
<path d="M895.856 306.281C891.509 306.281 887.565 305.462 884.022 303.825C880.479 302.157 877.666 299.761 875.582 296.635C873.498 293.479 872.456 289.669 872.456 285.203C872.456 281.274 873.23 278.088 874.778 275.647C876.326 273.176 878.395 271.241 880.985 269.842C883.575 268.442 886.433 267.401 889.559 266.716C892.715 266.001 895.885 265.436 899.071 265.019C903.239 264.483 906.618 264.081 909.208 263.813C911.827 263.516 913.733 263.024 914.923 262.34C916.144 261.655 916.754 260.464 916.754 258.767V258.41C916.754 254.004 915.549 250.58 913.137 248.139C910.756 245.698 907.138 244.477 902.286 244.477C897.255 244.477 893.31 245.579 890.452 247.782C887.594 249.985 885.585 252.337 884.424 254.837L874.421 251.265C876.207 247.097 878.589 243.852 881.566 241.53C884.573 239.178 887.847 237.541 891.39 236.618C894.962 235.665 898.475 235.189 901.929 235.189C904.132 235.189 906.662 235.457 909.52 235.993C912.408 236.499 915.191 237.556 917.871 239.163C920.58 240.771 922.828 243.197 924.614 246.442C926.4 249.687 927.293 254.034 927.293 259.482V304.673H916.754V295.385H916.219C915.504 296.873 914.313 298.466 912.646 300.163C910.979 301.86 908.761 303.304 905.992 304.494C903.224 305.685 899.845 306.281 895.856 306.281ZM897.463 296.814C901.631 296.814 905.144 295.995 908.002 294.358C910.89 292.72 913.063 290.607 914.522 288.017C916.01 285.426 916.754 282.702 916.754 279.845V270.199C916.308 270.735 915.325 271.226 913.807 271.673C912.319 272.089 910.592 272.461 908.627 272.789C906.692 273.087 904.802 273.355 902.956 273.593C901.14 273.801 899.666 273.98 898.535 274.129C895.796 274.486 893.236 275.066 890.854 275.87C888.502 276.644 886.597 277.82 885.138 279.398C883.709 280.946 882.995 283.06 882.995 285.739C882.995 289.401 884.349 292.169 887.058 294.045C889.797 295.891 893.266 296.814 897.463 296.814Z" fill="white"/>
<path fill-rule="evenodd" clip-rule="evenodd" d="M0.315918 16.8699V195.264H38.033V137.425H69.7398C83.4446 137.425 95.1169 134.899 104.757 129.847C114.454 124.795 121.859 117.739 126.969 108.68C132.079 99.6211 134.634 89.1683 134.634 77.3219C134.634 65.4754 132.108 55.0226 127.056 45.9635C122.062 36.8464 114.803 29.7327 105.279 24.6224C95.7556 19.4541 84.2285 16.8699 70.698 16.8699H0.315918ZM38.033 107.199H24.88V137.425H38.033V107.199ZM38.033 107.199V47.7056H63.4681C70.7851 47.7056 76.8245 48.9542 81.5863 51.4512C86.3481 53.8902 89.8905 57.3454 92.2133 61.8169C94.5942 66.2303 95.7847 71.3986 95.7847 77.3219C95.7847 83.187 94.5942 88.3844 92.2133 92.9139C89.8905 97.3854 86.3481 100.899 81.5863 103.454C76.8825 105.951 70.9012 107.199 63.6424 107.199H38.033Z" fill="white"/>
<path d="M24.88 107.199V137.425H38.033V107.199H24.88Z" fill="white"/>
<path fill-rule="evenodd" clip-rule="evenodd" d="M976.358 245.013V236.082H961.711V219.649H951.173V236.082H940.812V245.013H951.173V287.883C951.173 291.872 952.095 295.176 953.941 297.796C955.817 300.416 958.169 302.366 960.997 303.646C963.855 304.926 966.772 305.566 969.749 305.566C971.714 305.566 973.337 305.417 974.617 305.12C975.897 304.852 976.894 304.584 977.609 304.316L975.465 294.849L973.679 295.206C972.935 295.325 971.982 295.385 970.821 295.385C969.273 295.385 967.799 295.146 966.4 294.67C965.031 294.164 963.899 293.182 963.006 291.723C962.143 290.234 961.711 288.002 961.711 285.025V245.013H976.358ZM961.711 245.013V236.082H951.173V245.013H961.711Z" fill="white"/>
<path d="M961.711 245.013V236.082H951.173V245.013H961.711Z" fill="white"/>
</svg>
